<mxfile host="app.diagrams.net" agent="Mozilla/5.0 (Windows NT 10.0; Win64; x64; rv:141.0) Gecko/20100101 Firefox/141.0" version="28.0.7">
  <diagram name="Page-1" id="wkzZfOH5lfv2ABzslm5a">
    <mxGraphModel dx="1392" dy="1730" grid="1" gridSize="10" guides="1" tooltips="1" connect="1" arrows="1" fold="1" page="1" pageScale="1" pageWidth="850" pageHeight="1100" math="0" shadow="0">
      <root>
        <mxCell id="0" />
        <mxCell id="1" parent="0" />
        <mxCell id="CehPScionSyovV5Jhn6Q-38" style="edgeStyle=orthogonalEdgeStyle;rounded=0;orthogonalLoop=1;jettySize=auto;html=1;entryX=1;entryY=0.5;entryDx=0;entryDy=0;" edge="1" parent="1" source="CehPScionSyovV5Jhn6Q-1" target="CehPScionSyovV5Jhn6Q-3">
          <mxGeometry relative="1" as="geometry" />
        </mxCell>
        <mxCell id="CehPScionSyovV5Jhn6Q-1" value="bioavailability (f)" style="rounded=0;whiteSpace=wrap;html=1;" vertex="1" parent="1">
          <mxGeometry x="260" y="220" width="120" height="60" as="geometry" />
        </mxCell>
        <mxCell id="CehPScionSyovV5Jhn6Q-5" value="" style="edgeStyle=orthogonalEdgeStyle;rounded=0;orthogonalLoop=1;jettySize=auto;html=1;" edge="1" parent="1" source="CehPScionSyovV5Jhn6Q-2" target="CehPScionSyovV5Jhn6Q-3">
          <mxGeometry relative="1" as="geometry" />
        </mxCell>
        <mxCell id="CehPScionSyovV5Jhn6Q-2" value="Drug Adminstration" style="rounded=0;whiteSpace=wrap;html=1;" vertex="1" parent="1">
          <mxGeometry x="70" y="120" width="120" height="60" as="geometry" />
        </mxCell>
        <mxCell id="CehPScionSyovV5Jhn6Q-6" value="" style="edgeStyle=orthogonalEdgeStyle;rounded=0;orthogonalLoop=1;jettySize=auto;html=1;" edge="1" parent="1" source="CehPScionSyovV5Jhn6Q-3" target="CehPScionSyovV5Jhn6Q-4">
          <mxGeometry relative="1" as="geometry" />
        </mxCell>
        <mxCell id="CehPScionSyovV5Jhn6Q-3" value="Absorption" style="rounded=0;whiteSpace=wrap;html=1;" vertex="1" parent="1">
          <mxGeometry x="70" y="220" width="120" height="60" as="geometry" />
        </mxCell>
        <mxCell id="CehPScionSyovV5Jhn6Q-10" style="edgeStyle=orthogonalEdgeStyle;rounded=0;orthogonalLoop=1;jettySize=auto;html=1;entryX=0.5;entryY=0;entryDx=0;entryDy=0;" edge="1" parent="1" source="CehPScionSyovV5Jhn6Q-4" target="CehPScionSyovV5Jhn6Q-8">
          <mxGeometry relative="1" as="geometry" />
        </mxCell>
        <mxCell id="CehPScionSyovV5Jhn6Q-11" style="edgeStyle=orthogonalEdgeStyle;rounded=0;orthogonalLoop=1;jettySize=auto;html=1;" edge="1" parent="1" source="CehPScionSyovV5Jhn6Q-4" target="CehPScionSyovV5Jhn6Q-7">
          <mxGeometry relative="1" as="geometry" />
        </mxCell>
        <mxCell id="CehPScionSyovV5Jhn6Q-4" value="Distribution" style="rounded=0;whiteSpace=wrap;html=1;" vertex="1" parent="1">
          <mxGeometry x="70" y="330" width="120" height="60" as="geometry" />
        </mxCell>
        <mxCell id="CehPScionSyovV5Jhn6Q-7" value="Sites of metabolism or excretion" style="rounded=0;whiteSpace=wrap;html=1;" vertex="1" parent="1">
          <mxGeometry x="180" y="430" width="120" height="60" as="geometry" />
        </mxCell>
        <mxCell id="CehPScionSyovV5Jhn6Q-8" value="site of action" style="rounded=0;whiteSpace=wrap;html=1;" vertex="1" parent="1">
          <mxGeometry x="10" y="430" width="120" height="60" as="geometry" />
        </mxCell>
        <mxCell id="CehPScionSyovV5Jhn6Q-9" value="Effect" style="rounded=0;whiteSpace=wrap;html=1;" vertex="1" parent="1">
          <mxGeometry x="-70" y="530" width="120" height="60" as="geometry" />
        </mxCell>
        <mxCell id="CehPScionSyovV5Jhn6Q-12" style="edgeStyle=orthogonalEdgeStyle;rounded=0;orthogonalLoop=1;jettySize=auto;html=1;entryX=0.608;entryY=0.078;entryDx=0;entryDy=0;entryPerimeter=0;" edge="1" parent="1" source="CehPScionSyovV5Jhn6Q-8" target="CehPScionSyovV5Jhn6Q-9">
          <mxGeometry relative="1" as="geometry" />
        </mxCell>
        <mxCell id="CehPScionSyovV5Jhn6Q-14" style="edgeStyle=orthogonalEdgeStyle;rounded=0;orthogonalLoop=1;jettySize=auto;html=1;entryX=0;entryY=0.5;entryDx=0;entryDy=0;" edge="1" parent="1" source="CehPScionSyovV5Jhn6Q-13" target="CehPScionSyovV5Jhn6Q-3">
          <mxGeometry relative="1" as="geometry" />
        </mxCell>
        <mxCell id="CehPScionSyovV5Jhn6Q-15" value="Routes of admin" style="edgeLabel;html=1;align=center;verticalAlign=middle;resizable=0;points=[];" vertex="1" connectable="0" parent="CehPScionSyovV5Jhn6Q-14">
          <mxGeometry x="-0.0067" y="1" relative="1" as="geometry">
            <mxPoint x="1" as="offset" />
          </mxGeometry>
        </mxCell>
        <mxCell id="CehPScionSyovV5Jhn6Q-17" style="edgeStyle=orthogonalEdgeStyle;rounded=0;orthogonalLoop=1;jettySize=auto;html=1;" edge="1" parent="1" source="CehPScionSyovV5Jhn6Q-13" target="CehPScionSyovV5Jhn6Q-16">
          <mxGeometry relative="1" as="geometry" />
        </mxCell>
        <mxCell id="CehPScionSyovV5Jhn6Q-18" value="enteral" style="edgeLabel;html=1;align=center;verticalAlign=middle;resizable=0;points=[];" vertex="1" connectable="0" parent="CehPScionSyovV5Jhn6Q-17">
          <mxGeometry x="0.0683" y="2" relative="1" as="geometry">
            <mxPoint as="offset" />
          </mxGeometry>
        </mxCell>
        <mxCell id="CehPScionSyovV5Jhn6Q-53" style="edgeStyle=orthogonalEdgeStyle;rounded=0;orthogonalLoop=1;jettySize=auto;html=1;" edge="1" parent="1" source="CehPScionSyovV5Jhn6Q-13" target="CehPScionSyovV5Jhn6Q-52">
          <mxGeometry relative="1" as="geometry" />
        </mxCell>
        <mxCell id="CehPScionSyovV5Jhn6Q-54" value="parenteral" style="edgeLabel;html=1;align=center;verticalAlign=middle;resizable=0;points=[];" vertex="1" connectable="0" parent="CehPScionSyovV5Jhn6Q-53">
          <mxGeometry x="-0.0095" relative="1" as="geometry">
            <mxPoint as="offset" />
          </mxGeometry>
        </mxCell>
        <mxCell id="CehPScionSyovV5Jhn6Q-13" value="Enteral, Parenteral, topical, inhalation" style="rounded=0;whiteSpace=wrap;html=1;" vertex="1" parent="1">
          <mxGeometry x="-180" y="220" width="120" height="60" as="geometry" />
        </mxCell>
        <mxCell id="CehPScionSyovV5Jhn6Q-16" value="Oral, Buccal or sublingual, and rectal" style="rounded=0;whiteSpace=wrap;html=1;" vertex="1" parent="1">
          <mxGeometry x="-300" y="80" width="120" height="60" as="geometry" />
        </mxCell>
        <mxCell id="CehPScionSyovV5Jhn6Q-20" value="" style="edgeStyle=orthogonalEdgeStyle;rounded=0;orthogonalLoop=1;jettySize=auto;html=1;" edge="1" parent="1" source="CehPScionSyovV5Jhn6Q-19" target="CehPScionSyovV5Jhn6Q-16">
          <mxGeometry relative="1" as="geometry" />
        </mxCell>
        <mxCell id="CehPScionSyovV5Jhn6Q-19" value="Absorption Occurs in the upper intestine of the GI tract" style="rounded=0;whiteSpace=wrap;html=1;" vertex="1" parent="1">
          <mxGeometry x="-485" y="80" width="120" height="60" as="geometry" />
        </mxCell>
        <mxCell id="CehPScionSyovV5Jhn6Q-23" value="" style="edgeStyle=orthogonalEdgeStyle;rounded=0;orthogonalLoop=1;jettySize=auto;html=1;" edge="1" parent="1" source="CehPScionSyovV5Jhn6Q-22" target="CehPScionSyovV5Jhn6Q-19">
          <mxGeometry relative="1" as="geometry" />
        </mxCell>
        <mxCell id="CehPScionSyovV5Jhn6Q-22" value="increased stomach emptying increases gastric emptying&amp;nbsp;&amp;nbsp;" style="rounded=0;whiteSpace=wrap;html=1;" vertex="1" parent="1">
          <mxGeometry x="-310" width="120" height="60" as="geometry" />
        </mxCell>
        <mxCell id="CehPScionSyovV5Jhn6Q-25" style="edgeStyle=orthogonalEdgeStyle;rounded=0;orthogonalLoop=1;jettySize=auto;html=1;entryX=0;entryY=0.5;entryDx=0;entryDy=0;" edge="1" parent="1" source="CehPScionSyovV5Jhn6Q-24" target="CehPScionSyovV5Jhn6Q-19">
          <mxGeometry relative="1" as="geometry" />
        </mxCell>
        <mxCell id="CehPScionSyovV5Jhn6Q-24" value="tablet disintegration determines absorbtion" style="rounded=0;whiteSpace=wrap;html=1;" vertex="1" parent="1">
          <mxGeometry x="-640" y="80" width="120" height="60" as="geometry" />
        </mxCell>
        <mxCell id="CehPScionSyovV5Jhn6Q-27" value="" style="edgeStyle=orthogonalEdgeStyle;rounded=0;orthogonalLoop=1;jettySize=auto;html=1;" edge="1" parent="1" source="CehPScionSyovV5Jhn6Q-26" target="CehPScionSyovV5Jhn6Q-19">
          <mxGeometry relative="1" as="geometry" />
        </mxCell>
        <mxCell id="CehPScionSyovV5Jhn6Q-26" value="oral administration takes time for absorbtion" style="rounded=0;whiteSpace=wrap;html=1;" vertex="1" parent="1">
          <mxGeometry x="-485" y="160" width="120" height="60" as="geometry" />
        </mxCell>
        <mxCell id="CehPScionSyovV5Jhn6Q-28" style="edgeStyle=orthogonalEdgeStyle;rounded=0;orthogonalLoop=1;jettySize=auto;html=1;exitX=0.5;exitY=1;exitDx=0;exitDy=0;" edge="1" parent="1" source="CehPScionSyovV5Jhn6Q-26" target="CehPScionSyovV5Jhn6Q-26">
          <mxGeometry relative="1" as="geometry" />
        </mxCell>
        <mxCell id="CehPScionSyovV5Jhn6Q-30" value="" style="edgeStyle=orthogonalEdgeStyle;rounded=0;orthogonalLoop=1;jettySize=auto;html=1;" edge="1" parent="1" source="CehPScionSyovV5Jhn6Q-29" target="CehPScionSyovV5Jhn6Q-26">
          <mxGeometry relative="1" as="geometry" />
        </mxCell>
        <mxCell id="CehPScionSyovV5Jhn6Q-29" value="can use time to regulate drug in body" style="rounded=0;whiteSpace=wrap;html=1;" vertex="1" parent="1">
          <mxGeometry x="-640" y="160" width="120" height="60" as="geometry" />
        </mxCell>
        <mxCell id="CehPScionSyovV5Jhn6Q-32" style="edgeStyle=orthogonalEdgeStyle;rounded=0;orthogonalLoop=1;jettySize=auto;html=1;entryX=0;entryY=0.25;entryDx=0;entryDy=0;" edge="1" parent="1" source="CehPScionSyovV5Jhn6Q-31" target="CehPScionSyovV5Jhn6Q-19">
          <mxGeometry relative="1" as="geometry">
            <Array as="points">
              <mxPoint x="-505" y="30" />
              <mxPoint x="-505" y="95" />
            </Array>
          </mxGeometry>
        </mxCell>
        <mxCell id="CehPScionSyovV5Jhn6Q-33" value="&lt;div&gt;first&lt;/div&gt;&lt;div&gt;pass&lt;/div&gt;&lt;div&gt;effect&lt;/div&gt;" style="edgeLabel;html=1;align=center;verticalAlign=middle;resizable=0;points=[];" vertex="1" connectable="0" parent="CehPScionSyovV5Jhn6Q-32">
          <mxGeometry x="-0.1267" y="1" relative="1" as="geometry">
            <mxPoint as="offset" />
          </mxGeometry>
        </mxCell>
        <mxCell id="CehPScionSyovV5Jhn6Q-36" style="edgeStyle=orthogonalEdgeStyle;rounded=0;orthogonalLoop=1;jettySize=auto;html=1;entryX=0;entryY=0.5;entryDx=0;entryDy=0;exitX=0.5;exitY=0;exitDx=0;exitDy=0;" edge="1" parent="1" source="CehPScionSyovV5Jhn6Q-31" target="CehPScionSyovV5Jhn6Q-34">
          <mxGeometry relative="1" as="geometry">
            <mxPoint x="-580" y="-10" as="sourcePoint" />
          </mxGeometry>
        </mxCell>
        <mxCell id="CehPScionSyovV5Jhn6Q-37" value="&lt;div&gt;both because of the&amp;nbsp;&lt;/div&gt;&lt;div&gt;liver&lt;/div&gt;" style="edgeLabel;html=1;align=center;verticalAlign=middle;resizable=0;points=[];" vertex="1" connectable="0" parent="CehPScionSyovV5Jhn6Q-36">
          <mxGeometry x="-0.3718" y="3" relative="1" as="geometry">
            <mxPoint as="offset" />
          </mxGeometry>
        </mxCell>
        <mxCell id="CehPScionSyovV5Jhn6Q-31" value="not all drug gets into the circulation" style="rounded=0;whiteSpace=wrap;html=1;" vertex="1" parent="1">
          <mxGeometry x="-640" width="120" height="60" as="geometry" />
        </mxCell>
        <mxCell id="CehPScionSyovV5Jhn6Q-34" value="enterohepatic recycling sends back to GI via bile" style="rounded=0;whiteSpace=wrap;html=1;" vertex="1" parent="1">
          <mxGeometry x="-510" y="-90" width="120" height="60" as="geometry" />
        </mxCell>
        <mxCell id="CehPScionSyovV5Jhn6Q-35" style="edgeStyle=orthogonalEdgeStyle;rounded=0;orthogonalLoop=1;jettySize=auto;html=1;entryX=0.365;entryY=0.078;entryDx=0;entryDy=0;entryPerimeter=0;" edge="1" parent="1" source="CehPScionSyovV5Jhn6Q-34" target="CehPScionSyovV5Jhn6Q-19">
          <mxGeometry relative="1" as="geometry" />
        </mxCell>
        <mxCell id="CehPScionSyovV5Jhn6Q-40" style="edgeStyle=orthogonalEdgeStyle;rounded=0;orthogonalLoop=1;jettySize=auto;html=1;" edge="1" parent="1" source="CehPScionSyovV5Jhn6Q-39" target="CehPScionSyovV5Jhn6Q-1">
          <mxGeometry relative="1" as="geometry" />
        </mxCell>
        <mxCell id="CehPScionSyovV5Jhn6Q-39" value="fraction of administered dose of drug that reaches the circulation" style="rounded=0;whiteSpace=wrap;html=1;" vertex="1" parent="1">
          <mxGeometry x="450" y="220" width="120" height="60" as="geometry" />
        </mxCell>
        <mxCell id="CehPScionSyovV5Jhn6Q-43" style="edgeStyle=orthogonalEdgeStyle;rounded=0;orthogonalLoop=1;jettySize=auto;html=1;" edge="1" parent="1" source="CehPScionSyovV5Jhn6Q-42" target="CehPScionSyovV5Jhn6Q-1">
          <mxGeometry relative="1" as="geometry" />
        </mxCell>
        <mxCell id="CehPScionSyovV5Jhn6Q-42" value="" style="shape=image;verticalLabelPosition=bottom;labelBackgroundColor=default;verticalAlign=top;aspect=fixed;imageAspect=0;image=data:image/jpeg,/9j/4AAQSkZJRgABAQEAYABgAAD/4RDyRXhpZgAATU0AKgAAAAgABAE7AAIAAAANAAAISodpAAQAAAABAAAIWJydAAEAAAAaAAAQ0OocAAcAAAgMAAAAPgAAAAAc6gAAAAgAAAAAAAAAAAAAAAAAAAAAAAAAAAAAAAAAAAAAAAAAAAAAAAAAAAAAAAAAAAAAAAAAAAAAAAAAAAAAAAAAAAAAAAAAAAAAAAAAAAAAAAAAAAAAAAAAAAAAAAAAAAAAAAAAAAAAAAAAAAAAAAAAAAAAAAAAAAAAAAAAAAAAAAAAAAAAAAAAAAAAAAAAAAAAAAAAAAAAAAAAAAAAAAAAAAAAAAAAAAAAAAAAAAAAAAAAAAAAAAAAAAAAAAAAAAAAAAAAAAAAAAAAAAAAAAAAAAAAAAAAAAAAAAAAAAAAAAAAAAAAAAAAAAAAAAAAAAAAAAAAAAAAAAAAAAAAAAAAAAAAAAAAAAAAAAAAAAAAAAAAAAAAAAAAAAAAAAAAAAAAAAAAAAAAAAAAAAAAAAAAAAAAAAAAAAAAAAAAAAAAAAAAAAAAAAAAAAAAAAAAAAAAAAAAAAAAAAAAAAAAAAAAAAAAAAAAAAAAAAAAAAAAAAAAAAAAAAAAAAAAAAAAAAAAAAAAAAAAAAAAAAAAAAAAAAAAAAAAAAAAAAAAAAAAAAAAAAAAAAAAAAAAAAAAAAAAAAAAAAAAAAAAAAAAAAAAAAAAAAAAAAAAAAAAAAAAAAAAAAAAAAAAAAAAAAAAAAAAAAAAAAAAAAAAAAAAAAAAAAAAAAAAAAAAAAAAAAAAAAAAAAAAAAAAAAAAAAAAAAAAAAAAAAAAAAAAAAAAAAAAAAAAAAAAAAAAAAAAAAAAAAAAAAAAAAAAAAAAAAAAAAAAAAAAAAAAAAAAAAAAAAAAAAAAAAAAAAAAAAAAAAAAAAAAAAAAAAAAAAAAAAAAAAAAAAAAAAAAAAAAAAAAAAAAAAAAAAAAAAAAAAAAAAAAAAAAAAAAAAAAAAAAAAAAAAAAAAAAAAAAAAAAAAAAAAAAAAAAAAAAAAAAAAAAAAAAAAAAAAAAAAAAAAAAAAAAAAAAAAAAAAAAAAAAAAAAAAAAAAAAAAAAAAAAAAAAAAAAAAAAAAAAAAAAAAAAAAAAAAAAAAAAAAAAAAAAAAAAAAAAAAAAAAAAAAAAAAAAAAAAAAAAAAAAAAAAAAAAAAAAAAAAAAAAAAAAAAAAAAAAAAAAAAAAAAAAAAAAAAAAAAAAAAAAAAAAAAAAAAAAAAAAAAAAAAAAAAAAAAAAAAAAAAAAAAAAAAAAAAAAAAAAAAAAAAAAAAAAAAAAAAAAAAAAAAAAAAAAAAAAAAAAAAAAAAAAAAAAAAAAAAAAAAAAAAAAAAAAAAAAAAAAAAAAAAAAAAAAAAAAAAAAAAAAAAAAAAAAAAAAAAAAAAAAAAAAAAAAAAAAAAAAAAAAAAAAAAAAAAAAAAAAAAAAAAAAAAAAAAAAAAAAAAAAAAAAAAAAAAAAAAAAAAAAAAAAAAAAAAAAAAAAAAAAAAAAAAAAAAAAAAAAAAAAAAAAAAAAAAAAAAAAAAAAAAAAAAAAAAAAAAAAAAAAAAAAAAAAAAAAAAAAAAAAAAAAAAAAAAAAAAAAAAAAAAAAAAAAAAAAAAAAAAAAAAAAAAAAAAAAAAAAAAAAAAAAAAAAAAAAAAAAAAAAAAAAAAAAAAAAAAAAAAAAAAAAAAAAAAAAAAAAAAAAAAAAAAAAAAAAAAAAAAAAAAAAAAAAAAAAAAAAAAAAAAAAAAAAAAAAAAAAAAAAAAAAAAAAAAAAAAAAAAAAAAAAAAAAAAAAAAAAAAAAAAAAAAAAAAAAAAAAAAAAAAAAAAAAAAAAAAAAAAAAAAAAAAAAAAAAAAAAAAAAAAAAAAAAAAAAAAAAAAAAAAAAAAAAAAAAAAAAAAAAAAAAAAAAAAAAAAAAAAAAAAAAAAAAAAAAAAAAAAAAAAAAAAAAAAAAAAAAAAAAAAAAAAAAAAAAAAAAAAAAAAAAAAAAAAAAAAAAAAAAAAAAAAAAAAAAAAAAAAAAAAAAAAAAAAAAAAAAAAAAAAAAAAAAAAAAAAAAAAAAAAAAAAAAAAAAAAAAAAAAAAAAAAAAAAAAAAAAAAAAAAAAAAAAAAAAAAAAAAAAAAAAAAAAAAAAAAAAAAAAAAAAAAAAAAAAAAAAAAAAAAAAAAAAAAAAAAAAAAAAAAAAAAAAAAAAAAAAAAAAAAAAAAAAAAAAAAAAAAAAAAAAAAAAAAAAAAAAAAAAAAAAAAAAAAAAAAAAAAAAAAAAAAAAAAAAAAAAAAAAAAAAAAAAAAAAAAAAAAAAAAAAAAAAAAAAAAAAAAAAAAAAAAAAAAAAAAAAAAAAAAAAAAAAAAAAAAAAAAAAAAAAAAAAAAAAAAAAAAAAAAAAAAAAAAAAAAAAAAAAAAAAAAAAAAAAAAAAAAAAAAAAAAAAAAAAAAAAAAAAAAAAAAAAAAAAAAAAAAAAAAAAAAAAAAAAAAAAAAAAAAAAAAAAAAAAAAAAAAAAAAAAAAAAAAAAAAAAAAAAAAAAAAAAAAAAAAAAAAAAAAAAAAAAAAAAAAAAAAAAAAAAAAAAAAAAAAAAAAAAAAAAAAAAAAAAAAAAAAAAAAAAAAAAAAAAAAAAAAAAAAAAAAAAAAAAAAAAAAAAAAAAAAAAAAAAAAAAAAAAAAAAAAAAAAAAAAAAAAAAAAAAAAAAAAAAAAAAAAAAAAAAAAAAAAAAAAAAAAAAAAAAAAAAAAAAAAAAAAAAAAAAAAAAAAAAAAAAAAAAAAAAAAAAAAAAAAAAAAAAAAAAAAAAAAAAAAAAAAAAAAAAAAAAAAAAAAAAAAAAAAAAAAAAAEFsZXggWWFydHNldgAAAAWQAwACAAAAFAAAEKaQBAACAAAAFAAAELqSkQACAAAAAzAxAACSkgACAAAAAzAxAADqHAAHAAAIDAAACJoAAAAAHOoAAAAIAAAAAAAAAAAAAAAAAAAAAAAAAAAAAAAAAAAAAAAAAAAAAAAAAAAAAAAAAAAAAAAAAAAAAAAAAAAAAAAAAAAAAAAAAAAAAAAAAAAAAAAAAAAAAAAAAAAAAAAAAAAAAAAAAAAAAAAAAAAAAAAAAAAAAAAAAAAAAAAAAAAAAAAAAAAAAAAAAAAAAAAAAAAAAAAAAAAAAAAAAAAAAAAAAAAAAAAAAAAAAAAAAAAAAAAAAAAAAAAAAAAAAAAAAAAAAAAAAAAAAAAAAAAAAAAAAAAAAAAAAAAAAAAAAAAAAAAAAAAAAAAAAAAAAAAAAAAAAAAAAAAAAAAAAAAAAAAAAAAAAAAAAAAAAAAAAAAAAAAAAAAAAAAAAAAAAAAAAAAAAAAAAAAAAAAAAAAAAAAAAAAAAAAAAAAAAAAAAAAAAAAAAAAAAAAAAAAAAAAAAAAAAAAAAAAAAAAAAAAAAAAAAAAAAAAAAAAAAAAAAAAAAAAAAAAAAAAAAAAAAAAAAAAAAAAAAAAAAAAAAAAAAAAAAAAAAAAAAAAAAAAAAAAAAAAAAAAAAAAAAAAAAAAAAAAAAAAAAAAAAAAAAAAAAAAAAAAAAAAAAAAAAAAAAAAAAAAAAAAAAAAAAAAAAAAAAAAAAAAAAAAAAAAAAAAAAAAAAAAAAAAAAAAAAAAAAAAAAAAAAAAAAAAAAAAAAAAAAAAAAAAAAAAAAAAAAAAAAAAAAAAAAAAAAAAAAAAAAAAAAAAAAAAAAAAAAAAAAAAAAAAAAAAAAAAAAAAAAAAAAAAAAAAAAAAAAAAAAAAAAAAAAAAAAAAAAAAAAAAAAAAAAAAAAAAAAAAAAAAAAAAAAAAAAAAAAAAAAAAAAAAAAAAAAAAAAAAAAAAAAAAAAAAAAAAAAAAAAAAAAAAAAAAAAAAAAAAAAAAAAAAAAAAAAAAAAAAAAAAAAAAAAAAAAAAAAAAAAAAAAAAAAAAAAAAAAAAAAAAAAAAAAAAAAAAAAAAAAAAAAAAAAAAAAAAAAAAAAAAAAAAAAAAAAAAAAAAAAAAAAAAAAAAAAAAAAAAAAAAAAAAAAAAAAAAAAAAAAAAAAAAAAAAAAAAAAAAAAAAAAAAAAAAAAAAAAAAAAAAAAAAAAAAAAAAAAAAAAAAAAAAAAAAAAAAAAAAAAAAAAAAAAAAAAAAAAAAAAAAAAAAAAAAAAAAAAAAAAAAAAAAAAAAAAAAAAAAAAAAAAAAAAAAAAAAAAAAAAAAAAAAAAAAAAAAAAAAAAAAAAAAAAAAAAAAAAAAAAAAAAAAAAAAAAAAAAAAAAAAAAAAAAAAAAAAAAAAAAAAAAAAAAAAAAAAAAAAAAAAAAAAAAAAAAAAAAAAAAAAAAAAAAAAAAAAAAAAAAAAAAAAAAAAAAAAAAAAAAAAAAAAAAAAAAAAAAAAAAAAAAAAAAAAAAAAAAAAAAAAAAAAAAAAAAAAAAAAAAAAAAAAAAAAAAAAAAAAAAAAAAAAAAAAAAAAAAAAAAAAAAAAAAAAAAAAAAAAAAAAAAAAAAAAAAAAAAAAAAAAAAAAAAAAAAAAAAAAAAAAAAAAAAAAAAAAAAAAAAAAAAAAAAAAAAAAAAAAAAAAAAAAAAAAAAAAAAAAAAAAAAAAAAAAAAAAAAAAAAAAAAAAAAAAAAAAAAAAAAAAAAAAAAAAAAAAAAAAAAAAAAAAAAAAAAAAAAAAAAAAAAAAAAAAAAAAAAAAAAAAAAAAAAAAAAAAAAAAAAAAAAAAAAAAAAAAAAAAAAAAAAAAAAAAAAAAAAAAAAAAAAAAAAAAAAAAAAAAAAAAAAAAAAAAAAAAAAAAAAAAAAAAAAAAAAAAAAAAAAAAAAAAAAAAAAAAAAAAAAAAAAAAAAAAAAAAAAAAAAAAAAAAAAAAAAAAAAAAAAAAAAAAAAAAAAAAAAAAAAAAAAAAAAAAAAAAAAAAAAAAAAAAAAAAAAAAAAAAAAAAAAAAAAAAAAAAAAAAAAAAAAAAAAAAAAAAAAAAAAAAAAAAAAAAAAAAAAAAAAAAAAAAAAAAAAAAAAAAAAAAAAAAAAAAAAAAAAAAAAAAAAAAAAAAAAAAAAAAAAAAAAAAAAAAAAAAAAAAAAAAAAAAAAAAAAAAAAAAAAAAAAAAAAAAAAAAAAAAAAAAAAAAAAAAAAAAAAAAAAAAAAAAAAAAAAAAAAAAAAAAAAAAAAAAAAAAAAAAAAAAAAAAAAAAAAAAAAAAAAAAAAAAAAAAAAAAAAAAAAAAAAAAAAAAAAAAAAAAAAAAAAAAAAAAAAAAAAAAAAAAAAAAAAAAAAAAAAAAAAAAAAAAAAAAAAAAAAAAAAAAAAAAAAAAAAAAAAAAAAAAAAAAAAAAAAAAAAAAAAAAAAAAAAAAAAAAAAAAAAAAAAAAAAAAAAAAAAAAAAAAAAAAAAAAAAAAAAAAAAAAAAAAAAAAAAAAAAAAAAAAAAAAAAAAAAAAAAAAAAAAAAAAAAAAAAAAAAAAAAAAAAAAAAAAAAAAAAAAAAAAAAAAAAAAAAAAAAAAAAAAAAAAAAAAAAAAAAAAAAAAAAAAAAAAAAAAAAAAAAAAAAAAAAAAAAAAAAAAAAAAAAAAAAAAAAAAAAAAAAAAAAAAAAAAAAAAAAAAAAAAAAAAAAAAAAAAAAAAAAAAAAAAAAAAAAAAAAAAAAAAAAAAAAAAAAAAAAAAAAAAAAAAAAAAAAAAAAAAAAAAAAAAAAAAAAAAAAAAAAAAAAAAAAAAAAAAAAAAAAAAyMDE3OjEwOjA0IDE1OjI1OjQ1ADIwMTc6MTA6MDQgMTU6MjU6NDUAAABBAGwAZQB4ACAAWQBhAHIAdABzAGUAdgAAAP/hCx9odHRwOi8vbnMuYWRvYmUuY29tL3hhcC8xLjAvADw/eHBhY2tldCBiZWdpbj0n77u/JyBpZD0nVzVNME1wQ2VoaUh6cmVTek5UY3prYzlkJz8+DQo8eDp4bXBtZXRhIHhtbG5zOng9ImFkb2JlOm5zOm1ldGEvIj48cmRmOlJERiB4bWxuczpyZGY9Imh0dHA6Ly93d3cudzMub3JnLzE5OTkvMDIvMjItcmRmLXN5bnRheC1ucyMiPjxyZGY6RGVzY3JpcHRpb24gcmRmOmFib3V0PSJ1dWlkOmZhZjViZGQ1LWJhM2QtMTFkYS1hZDMxLWQzM2Q3NTE4MmYxYiIgeG1sbnM6ZGM9Imh0dHA6Ly9wdXJsLm9yZy9kYy9lbGVtZW50cy8xLjEvIi8+PHJkZjpEZXNjcmlwdGlvbiByZGY6YWJvdXQ9InV1aWQ6ZmFmNWJkZDUtYmEzZC0xMWRhLWFkMzEtZDMzZDc1MTgyZjFiIiB4bWxuczp4bXA9Imh0dHA6Ly9ucy5hZG9iZS5jb20veGFwLzEuMC8iPjx4bXA6Q3JlYXRlRGF0ZT4yMDE3LTEwLTA0VDE1OjI1OjQ1LjAxNDwveG1wOkNyZWF0ZURhdGU+PC9yZGY6RGVzY3JpcHRpb24+PHJkZjpEZXNjcmlwdGlvbiByZGY6YWJvdXQ9InV1aWQ6ZmFmNWJkZDUtYmEzZC0xMWRhLWFkMzEtZDMzZDc1MTgyZjFiIiB4bWxuczpkYz0iaHR0cDovL3B1cmwub3JnL2RjL2VsZW1lbnRzLzEuMS8iPjxkYzpjcmVhdG9yPjxyZGY6U2VxIHhtbG5zOnJkZj0iaHR0cDovL3d3dy53My5vcmcvMTk5OS8wMi8yMi1yZGYtc3ludGF4LW5zIyI+PHJkZjpsaT5BbGV4IFlhcnRzZXY8L3JkZjpsaT48L3JkZjpTZXE+DQoJCQk8L2RjOmNyZWF0b3I+PC9yZGY6RGVzY3JpcHRpb24+PC9yZGY6UkRGPjwveDp4bXBtZXRhPg0KICAgICAgICAgICAgICAgICAgICAgICAgICAgICAgICAgICAgICAgICAgICAgICAgICAgICAgICAgICAgICAgICAgICAgICAgICAgICAgICAgICAgICAgICAgICAgICAgICAgIAogICAgICAgICAgICAgICAgICAgICAgICAgICAgICAgICAgICAgICAgICAgICAgICAgICAgICAgICAgICAgICAgICAgICAgICAgICAgICAgICAgICAgICAgICAgICAgICAgICAgCiAgICAgICAgICAgICAgICAgICAgICAgICAgICAgICAgICAgICAgICAgICAgICAgICAgICAgICAgICAgICAgICAgICAgICAgICAgICAgICAgICAgICAgICAgICAgICAgICAgICAKICAgICAgICAgICAgICAgICAgICAgICAgICAgICAgICAgICAgICAgICAgICAgICAgICAgICAgICAgICAgICAgICAgICAgICAgICAgICAgICAgICAgICAgICAgICAgICAgICAgIAogICAgICAgICAgICAgICAgICAgICAgICAgICAgICAgICAgICAgICAgICAgICAgICAgICAgICAgICAgICAgICAgICAgICAgICAgICAgICAgICAgICAgICAgICAgICAgICAgICAgCiAgICAgICAgICAgICAgICAgICAgICAgICAgICAgICAgICAgICAgICAgICAgICAgICAgICAgICAgICAgICAgICAgICAgICAgICAgICAgICAgICAgICAgICAgICAgICAgICAgICAKICAgICAgICAgICAgICAgICAgICAgICAgICAgICAgICAgICAgICAgICAgICAgICAgICAgICAgICAgICAgICAgICAgICAgICAgICAgICAgICAgICAgICAgICAgICAgICAgICAgIAogICAgICAgICAgICAgICAgICAgICAgICAgICAgICAgICAgICAgICAgICAgICAgICAgICAgICAgICAgICAgICAgICAgICAgICAgICAgICAgICAgICAgICAgICAgICAgICAgICAgCiAgICAgICAgICAgICAgICAgICAgICAgICAgICAgICAgICAgICAgICAgICAgICAgICAgICAgICAgICAgICAgICAgICAgICAgICAgICAgICAgICAgICAgICAgICAgICAgICAgICAKICAgICAgICAgICAgICAgICAgICAgICAgICAgICAgICAgICAgICAgICAgICAgICAgICAgICAgICAgICAgICAgICAgICAgICAgICAgICAgICAgICAgICAgICAgICAgICAgICAgIAogICAgICAgICAgICAgICAgICAgICAgICAgICAgICAgICAgICAgICAgICAgICAgICAgICAgICAgICAgICAgICAgICAgICAgICAgICAgICAgICAgICAgICAgICAgICAgICAgICAgCiAgICAgICAgICAgICAgICAgICAgICAgICAgICAgICAgICAgICAgICAgICAgICAgICAgICAgICAgICAgICAgICAgICAgICAgICAgICAgICAgICAgICAgICAgICAgICAgICAgICAKICAgICAgICAgICAgICAgICAgICAgICAgICAgICAgICAgICAgICAgICAgICAgICAgICAgICAgICAgICAgICAgICAgICAgICAgICAgICAgICAgICAgICAgICAgICAgICAgICAgIAogICAgICAgICAgICAgICAgICAgICAgICAgICAgICAgICAgICAgICAgICAgICAgICAgICAgICAgICAgICAgICAgICAgICAgICAgICAgICAgICAgICAgICAgICAgICAgICAgICAgCiAgICAgICAgICAgICAgICAgICAgICAgICAgICAgICAgICAgICAgICAgICAgICAgICAgICAgICAgICAgICAgICAgICAgICAgICAgICAgICAgICAgICAgICAgICAgICAgICAgICAKICAgICAgICAgICAgICAgICAgICAgICAgICAgICAgICAgICAgICAgICAgICAgICAgICAgICAgICAgICAgICAgICAgICAgICAgICAgICAgICAgICAgICAgICAgICAgICAgICAgIAogICAgICAgICAgICAgICAgICAgICAgICAgICAgICAgICAgICAgICAgICAgICAgICAgICAgICAgICAgICAgICAgICAgICAgICAgICAgICAgICAgICAgICAgICAgICAgICAgICAgCiAgICAgICAgICAgICAgICAgICAgICAgICAgICAgICAgICAgICAgICAgICAgICAgICAgICAgICAgICAgICAgICAgICAgICAgICAgICAgICAgICAgICAgICAgICAgICAgICAgICAKICAgICAgICAgICAgICAgICAgICAgICAgICAgICAgICAgICAgICAgICAgICAgICAgICAgICAgICAgICAgICAgICAgICAgICAgICAgICAgICAgICAgICAgICAgICAgICAgICAgIAogICAgICAgICAgICAgICAgICAgICAgICAgICAgICAgICAgICAgICAgICAgICAgICAgICAgICAgICAgICAgICAgICAgICAgICAgICAgICAgICAgICAgICAgICAgICAgICAgICAgCiAgICAgICAgICAgICAgICAgICAgICAgICAgICA8P3hwYWNrZXQgZW5kPSd3Jz8+/9sAQwAHBQUGBQQHBgUGCAcHCAoRCwoJCQoVDxAMERgVGhkYFRgXGx4nIRsdJR0XGCIuIiUoKSssKxogLzMvKjInKisq/9sAQwEHCAgKCQoUCwsUKhwYHCoqKioqKioqKioqKioqKioqKioqKioqKioqKioqKioqKioqKioqKioqKioqKioqKioq/8AAEQgAdAK0AwEiAAIRAQMRAf/EAB8AAAEFAQEBAQEBAAAAAAAAAAABAgMEBQYHCAkKC//EALUQAAIBAwMCBAMFBQQEAAABfQECAwAEEQUSITFBBhNRYQcicRQygZGhCCNCscEVUtHwJDNicoIJChYXGBkaJSYnKCkqNDU2Nzg5OkNERUZHSElKU1RVVldYWVpjZGVmZ2hpanN0dXZ3eHl6g4SFhoeIiYqSk5SVlpeYmZqio6Slpqeoqaqys7S1tre4ubrCw8TFxsfIycrS09TV1tfY2drh4uPk5ebn6Onq8fLz9PX29/j5+v/EAB8BAAMBAQEBAQEBAQEAAAAAAAABAgMEBQYHCAkKC//EALURAAIBAgQEAwQHBQQEAAECdwABAgMRBAUhMQYSQVEHYXETIjKBCBRCkaGxwQkjM1LwFWJy0QoWJDThJfEXGBkaJicoKSo1Njc4OTpDREVGR0hJSlNUVVZXWFlaY2RlZmdoaWpzdHV2d3h5eoKDhIWGh4iJipKTlJWWl5iZmqKjpKWmp6ipqrKztLW2t7i5usLDxMXGx8jJytLT1NXW19jZ2uLj5OXm5+jp6vLz9PX29/j5+v/aAAwDAQACEQMRAD8A+kaKKKACiiigAooooAKKKKACiiigAooooAKKKKACiiigAooooAKKKKACiiigAooooAKKKKACiiigAooooAKKKKACiiigAooooAKKKKACiiigAooooAKKKKACiiigAooooAKKKKACiiigAooooAKKKKACiiigAooooAKKKKACiiigAooooAKKKKACiiigAooooAKKKKACiiigAooooAKKKKACiiigAooooAKKKKACiiigAooooAKKKKACiiigAooooAKKKKACiiigAooooAKKKKACiiigAooooAKKKKACiiigAooooAKKKKACiiigAooooAKKKKACiikd1jjZ5GCIoJZmOAB6mgBaK4q5+KeixaTc6vZ2Wq6jo9qT5up2lrugAU4ZlLEF1HOWUEcHmut06+h1TS7W/tCxguoUmiLqVbayhhkHkHB6UAWKKKKACiiigAooooAKKKRmVFLOQqqMkk4AFAC0VHb3EF3bx3FpNHPDIu5JImDKw9QRwRUlABRRRQAUVF9qt/tn2Tz4vtPl+b5O8b9mcbtvXGeM1T1XXtM0SWxi1S7W3k1C5W1tVIJMsrdFGAfzPFAGjRRRQAUUUUAFFFcdZeOrvXXFx4W0CTVNKW/+xPfG5WINhgryxqQd8anOTkE7TgHrQB2NFFISQpwMnHA9aAFork/BnjS48W/26kmkfYZtHvnsHAuhKssqDLYYKMAZHbvT/AvjKXxlbatJNpZ05tM1GXTnH2gSiSSPG4qQBxk9e9AHU0UUUAFFFFABRWfo2vaZ4hs5LrRrtbuCKZ4GkQEAOpww5HOD3HFaFABRRRQAUUUUAFFFFABRRRQAUVyth4yuLv4mX/hGXSfJFnZC8F6tyHV0ZwqgrtyrHk4z0WuqoAKKo61fT6Zod5fWtqLuW2iaUQGXy94AyRuwccZ7VQ8FeJT4w8G6dr5snsBfIZFt3feVXcQDnAzkAHp3oA3aKKKACiiigAooooAKKKKACiiigAooooAKKKKACiiigAooooAKKKKACiiigAoooJCqSxwBySe1ABRWfpPiDRtfjkk0LVrHU0iIWRrO5SYIT0BKk4rQoAKKq6lqlho9i97q99bWFqhAae6mWJFJOBlmIAyeKks7y11Cziu9PuYbq2mXdHNBIHRx6hhwRQBNRRWdc+IdFs9Xh0q71ewg1G4AMNnLcos0gJIG1CdxyQeg7GgDRooooAKKKKACiiobm8tbJYzeXMNuJZFjjMsgXe7HAUZ6knoKAJqKKKACioLS9tdQtxPYXMN1CSQJIZA6kjqMjip6ACiiigArzT41391NomjeE9OlaGfxRqUdhJIhwUt85lI/DAPsTXpdcJ8R/DeqalqfhjX9Dtvt1xoGoG4kshIqNPEy4fYWwN4wCASAeeaAOui0bTotCXRUs4f7NW3+y/ZSgMZi27dhHcY4xXLeJfE97aeLdG8EeFI4ItQvIDczXEse6OxtE+XcEBG4kjaozgHrU6a14q1bxXpcNl4futK0SNnfUbq/eDfJ+7OyNEV2ONxUluOmB3rM1HR9V0T4yyeLrfSbjV7C80cWDi0aPzreRZN/3XZcowHY9eoxzQAlj4h8Qaf8UrvwTd6jFqPn6J/adlfT2oVoX8wx7JFjKh1yM8bT2z3qt4b8Q+K9X+IPizwyL+Oax0qS3CaqbZVaIvFueJVHDNuPBOdoU53ZFanhHwzqTeNNZ8aeJIFtL/UIktLOxEgc2lqhztZlJUszDcQCQOxNUPAnh3XdO8G+Krm8tmtdd1zUL28jjlcZQuNsQJBIA4B9s0ATfD3x1c6j8Mb3xH4qniaPT57pWu4kCieGInEm0cZOCMDqRUNjceP/ABb4Oi8Q6XqVro1xelJ7HTXtldFtyw5ldssXKZb5doGQPesrSvBmtXv7PcvggaVNpF2um+WrXM0eJbguXcDYzYQt3OCd3TvXY+G9R117DSbBvDdxpqW8KR3st9NFhQqYxEI2YudwHJ2jHPXigCjqnivUdU8fS+EvDM0FoNOt1udY1OVQ/wBmVuUiRTxvYfNluAOxqp4H1/xD4n03XVOr272tjqr21rrP2Rf9Jt1HzFQCELBuN+CvB4NZP/CEDTviP4n1PXPB58UWusSwXFjMqwSeUVTa0brK67cHBB5GO4IxXX63Hrh+FuqQWWmQQ6tJYzRWtlZSArGWBWNQx2jIBGegyDjigDgdK8e+MNV+Bt/4vnvoLF7GGZ4Ln7KpN+UdgpKnhUIAXgZLZ6Ac6nxQ1vVpfgCmqpdzaZqN/ZW6SWtsqnzZJwitFlgSAN7cgg8dab4o8Daof2e9N8JaXaSXFxFFZpeW8TqryKro020sQM5BOM1e+Iuka74m8PeHpbHQ5RHp2vW17daZ50XnSW0ZOQMNszz93d6c8UAbmieFtW8OeGrTS7XxK3k2sEUAaaziIhjRcHZtC88Dl9w65BriPCviX4kfED4b22oeHb3T7K5SWRHvrq1/4/MSlfkT7qgJglsHLZAAwTXc+ILjxFqHw/19rTSmgv57WWPT7TzVM2WTaC5B2htxJwGIAA5zVzwJoR8M+ANE0Z0CS2llGkwH/PTbl/8Ax4tQBj674m1S88eWvgvwtLFBdLa/bdS1CaLzPssOdqqi8AyMfXgDnB7VPCmu+I7j4seIfDeoajDf6XotpC3nfZ1jmaWYKyhyvy8BX6AZzUdvo+ueH/jJ4k1yDSJ9Ts9dtLVbeWKaNVt3iXYyPuYFQfvZUN3wCeKZ8OtI8R6F4o8TN4g0yWa41XUzO+prJGIDCIwECruL9dwC44GMnPUAxPAuj6trnxL8a6yPFV6TZXUekR3H2eAswiXdImDHtUBm/hA75yea6W81jVm+POn6Bb36yaaNKk1G5tWt4yY8N5aYfG4ZY569vTiqfwz0rxJ4Zs73Sb7RCk8+s3F5dajLMnkyxu2Q6BWLsxAAAIGO54wZ9P0vXNP+NniPWZ9GmurPULeytrG7SaNY4YlU+dvy27O/kAKc+3WgC3qHijVNZ+I03g7wzLHZrp1stzqupPEJWhL/AOrijU8byPmy2QB2NVvDPiLxBqHizxb4Qub+CW80SS1a31N7X78UyByGRWA3gZAIwCeSOMGHTdN1rwd8RvF2qJoN3rNprzW89tNZSQhlaNCpikEjrjk8HkYz0q74P8M6t4c0vxHr+pRxz+JNcle8lggbcse1SIbdWP3to4z6n8aAMDwz4u8V674Z8W3EupRW9tod7exW+rm2QtcpEMp8n3cDGWbHOQBggmu2+HmuX/iX4d6LrOrxpHeXlqskojGFJ5wwHbIwce9cTZ+Cde0/9mWfw1Z25Ov3NlKZoXkAZpJZCzqWzjO1ivXFd/4RSa38NWVnLpU2mRWdvFbwQzujOURFGSELBemMZ7dulAGb8Ub2fTfhlrl/aalNp0ttaSOssCoWY7SFT5gcZYgZHI7VV+FHhe78LeAdHtLjUZpo/sSObRoo1WCR/wB4+Cqhj8zN1JrL+OJ+3+FdI8MpuZvEOs2tk6qcHy9+92+g2D869KVQqhVAAAwAB0oA4SLxJrHi3x1q+h+HbldM0vQysV5qHkrLLNcMM+XGG+VQo+8SCc8YHWl8C+Mr2/s/FEHiOSOWXw1qE1tJeRR+WJ4kG4OVzgNjOQOOlZfhjT/EPgO88WW0Phy61htV1ifU7G6gmhWNxKFwkpdwy7SOTg5ycZ6UReANY0b4K+JNJtpI73xLriXN1ePGdqzXEw+ZVLHpj5QTjPXjNADvhNOdG+Cz+JNUAWS9N3rV1j/aZnzn/cVaj+HWoxeCv2f4PEeuEuXgm1W5K9ZGldnUDPchkH1qfVtG1zUPgLeeHdI0WaxvI9Kjsra3uJovMlCqquPlYqMgEDJ5zzil8WeFNU8X/A+78M2GnSaVOttbx2kF1LHucRFGCtsJVc7MDn0Jx0oAo634k8baR8L38eXd7bW08aRXf9iC1BiELuoEbSH59+1gSwIGeNtaep+KtZs/i14Mso7oDQ/ElrcM1rJEgaOSOHeDvxu53KMf/qqHxRpeufEjTLDw5PoNzoWjvNFNq0l3JFl0jIbyIljdicsB8xwABxk8VJ8UPDviHU9Y8I3/AIPgjN3p15KpmkxstUli2GQr/EF4OB1xigB+heOr7V/jhrXhoEf2RZ6f5lufLA8yWORUlIbqQGcoR6qaoWPiPxJ/wrnxn4hvtcH2ezmujo10trGGaGAkBiMbWDspXkdOR1FQa18PdXtPGXh6DwkGt9OGjzaZf6kzjzIY2kWRnHOWlc78NjhmLHpW58UPC97qHwfvPDnhGy52QQxWsDKhEKSJuVdxA+6p6nmgAsr7Xx8HLHWbnVLfT7xdKOoXs/2NSRmIyYVeFXHGcqeAe/NclqPj/wAaQ/Aq18cPNb2V6EtjDZm2D/bt8iozN/dDBiyquDgA5+bC9X4/t9e1v4P6tpug6FNbX12i2lvZySxlxCWVWZirFR8m7jce3fiq/wAQvCl/ceHfCOmaLYy31hpGrWcl3bwMiu1vCpAwHYAjOOM0AdN4z8Ww+DPBl1rt7A0kkSKsVshyZZmIVIwfdj19MmuI8Y6z4+8MeGtHv21mybV9X1GCwawFkpggeYHAjOd7MpHViQcHirXxNgu/Fej6Rp1jbodd0++t9al0P7Qhmlto3KkE52Z+Yd8ZBAJqr4gk1HxP8Y/BFndW8ljaWf2jVGsJSjSqETaksm1iB87BVAJx8xJ5wAD1iuDi8Sax4t8davofh25XTNL0MrFeah5KyyzXDDPlxhvlUKPvEgnPGB1rvK8w8Maf4h8B3niy2h8OXWsNqusT6nY3UE0KxuJQuElLuGXaRycHOTjPSgC74N8R6/4jtfEGl3eoW8F7oWrSWUuoi1/10KjIYJu2q/qeVHpXO+FfEvxI+IHw3ttQ8O3un2VyksiPfXVr/wAfmJSvyJ91QEwS2DlsgAYJrb0/wdrHhP4QeILW1xqPifVlubu4eA4El3OMfKWPReOSRnBPGa6rwJoR8M+ANE0Z0CS2llGkwH/PTbl//Hi1AGNq/iXVdT8fr4N8LzRW0lrai71XUpYhIbdW4SNF6GRuuTwBzg9KreDNe8RX3xN8U6Bqd9DfaZoMdukVwLdY5JZJkEnzFeMqAw4A+lQabo+v+G/ix4w1WDR5dStvEEdo9pcrNGqQtFGyMku5tyjJByqtwOATxR8MtJ8Q6Bq3iOLxBpk8txqWsz3T6oZIxFJFtUR7VDFucHC4+UHBPAyAHw3b+2PiD8QPEW4sj6nHpcOegFtHtbHsWbNdp4l8QWfhbwzf65qZItrGEyuF6t6KPckgD3Nch8HtK1zw94RTSfEGjzWl4J7ie8unmjZJpXmJBQKxJBXGSQvTjPa98XvC+o+Mfhbq2jaLhr2YRvFGzhRKUkV9uTxzt4zxnFAHGeO9W8aRfBHUfEmo6jDaXOoW6Rro8NqpWKO4YRhN5+cyhZM5BAyMba63Xtb/AOFYfDjRdP060W81FhbaTp1ruwss5UKNxHOOCSe/45rG8fWPifxbZeHZbbw/dW+m2Wr2tze6c0kJuJkQkscB9u1eBjdkls4AXnS8caLrWuSeEvEFppLyT6LqX2q40ozR+Y0ZBGVYnYXXg43Y6gE8ZAIdd13xP4K1rwodU1aLVodb1KPTbu3WzWJYnkHDxEHcACOQxbI9Km8UeLry1+J2n+F5dUTw9YXVibiHUHhVzdz79vkozgopA5OQScgccZfLoeq+M/iBo+tavp82k6NoG+W1tbl0M11cuMb2CMwVUA4yck9sVB4pOq+JtB1zQdf8A3F+Hllj06SOa3MTpyIpS7Sbo2HU8ZHbPSgC9f8AiTVfh94B1PVvGt1Dq1zb3DJZ/ZYvKa5ViFiQqOA5PXHA/CsXUfEXjDRNc8IwXup2d1qes6gkV9odtbrtt7cgl5Fbl/3YxlicE9hTfFXw/wBc1P4ReGdGmcatqOiXNpc3cBlA+2iIEPEGbAPDcFsZ2jNdN4XsY7PUSdF8Fw+HbJ1Y3M8yQxzzN2AWItkZ6l2HTgHqADrqKKKACiiigAooooAKKKKACvHE8NaB4o/aU8QTX+kafd22laPBFdRz2yOklxId6yMGBBYRjGfQD0r2MnAyeBXi/wAOtF8NeKrXxd408W6dpN7BqGs3H2e4v4I5FitowFUhnHy9+noKANHwHbQwfGbxInhBRF4TgsY4pYrf/j1F9uBPlAfKCEyGC9Cea6DwnrVr4n8d69eQ/wDCQ2dxpKJp1xp99LGLRWJL740jZgX4GWJ6MAKx/gXJcy+G9ZMAlHh5dXnGgibJItN3G0nnZnpn3qL4MXy3XgfU9cjkjfUvEOo32qxW7SDeyh/LAC9doKge24etAHV3fj2zTUr6x0fTNT16bTTtvv7NjjK27YzsLSOgZsfwruYelXtP8YaHqXg1PFVvfoujtA05uZPlCKuQ2R2IIII9RivOPhhr1h4R/Z4TXrqdZLyRrme4DH95cXbSsBGR1LkhFx16Vz2o+G7zwx8Efh94Y1dDFDf+ILRNXVjgIksrSGN+wxlQe2VoA9HvfizpmnafZ6hf6Hrlvp+oTJBY3UltGBdO4yiqnmb1yASN6qDitbxN460/wrc2kWoWWoSx3V5DZ+fBADHHJL9wEsQW6c7A2O/WuP8AiDqVrrnxO8D+GEKNb2upyaldTE4SN7aEuI89MgNkjsGXPWl+L2q6aupfD9r+9gi0ttcS+e5eQCLbFGWUlumDuGOefegDs77xpZaf4ksdIuLHUP8ATro2kV35IEPnBC+3lgx+UH5lUr2z1puoeNrO28QS6Fplhf61qcEay3Nvp6R/6MrfdMjyOiKTgkLu3H0rJ0R28d+LLbxSYZItC0tHTR/NQo13I42vc7TyE2/KmeTuY9xXMfDDXoNF8BeJvEOp5l1W61u8ee335lkmU4WEDtgAeyjJOAM0Ad14a8eWHi7Q9R1PQbHUJ1sJmt3geJY5JJVRWZFDMBkbtvJAyDzjmqvw11Wx8R+HbnxNpl1rc1rq93LNHHrEqkwBWKFIlUlUjBU4GSeuTXFeEtSHhr9mi91ITwvqs+nXOqSIjDcHnZyjFeoHKj/gJrXguYvBv7N8kVnNE95pugAyJG4YxzSRZBIHQbmz7igCT4LeTP4V1vxO22OPXdavL9XOFVYg5RfwGwnPuav3fxb0a00KbXzpmry+HoW2nWEt08hiW2DapcSMC2AGCbcnrXHeL9/hv9lF9N0iZGubbTLSK7ELgtEJWQyEgdA25vwOav8AxYm08+EfD3gHSdkkGqahYWDmNsrBb7wyEkd28vgdwrEdKAOh+KetonwR1i+jjZP7RsFgijmADA3GIwD2BG/n0xUuh+K9H8Pr4a8LC0voba5tltdN1B4lFvdGNBwDu3gkDILKA3UE5rB+Ld9pms3vgbw29xBJY6trivNtcMkscH3o8jjBZlX61P4p2+LvjJ4W0fTCs0Hht5NS1OROVgfAWGMkdHJBO305oA2L3XLXVfi3YeGpD4hsb3TbZ9SAgljSzvYTiMGTaxdgGyApC85zkYrN8SJHrX7QPhHTtob+xtPutUlGP7+IUyfZgTUXhK6ivvjb431W9miiW2Npo9mJHALEIXdRnqSxyB/hR4RuYb341eONWvZoohA9ppFmJHCk4Qu6jPUljkCgDXfW7XWfi9b6Ex8Q2N5o1pJemOOWNLG8jfEYaQKxZ8E5VSBggnFZOoePfEbfGSHw9pvh/UnsNPspbm8ghe0L3YZtkbgvKAiAgkDcrnPK4FJ4Guob74s+O9YvJ44yb2DR7RHcAnyYyXVQeSSTu/A1B4P1O1T4o/EbX9XnW3WC7tNNiVwcqqJgBR1O9iCAOp6UAdZrXj208PT6eur6TqlvDeTw27XRijMVtLL91HYPz6Fk3KD3qbXPGdroPirRNCudO1CabWnaO2ngRGiVlGWDZcMMDkkKRj8ayPjRph1X4O+IUQlZLe3+1oy9VMLCTI/BTSeD5v8AhNtch8azREWUFn9l0kOpG4vtNxMAegZlVB7Rk9GoA7pmVFLOQqqMkk4AFedfDZB4za4+IGrp58l5PLHo8cq8WVojlBtU9HcqWZup4HSu51qGS40G/hgUtLJbSIijqSVIArkPglNFP8FfDb24AUWzIcf3lkZW/UGgDB+JmjaZ4m+MXgHR7rTra6fdcXd28sStmCNcqjZ6oXzweM/U1s2HgbwXqPjTT9e8K2unWUnhu6uLe5jsLFYlllaIDaWUAEpvByN2CSOCDWFYado3j39oPxPLq1lZaraaBpttYRw3USTR73YyMwVgRkEMue3Nej+GfDGmeEdJfTdFi8m1a5luBHgAIZHLFQAAAoztA7ADr1oA5Dxoy+A/E+keK9MUW9nqF9Hp+tW6fKkyycJOR03owA3dSpxXo1eafH5Xm+E89rbttuLm+tIoMDJLmZSMfln8K9LoA4/xR8VvBngvVxpniXWfsV40QmEX2WaT5CSAcohHY96xv+Gg/hj/ANDN/wCSFz/8brZ8UeI/GelauLfw14D/ALfszEGN3/bENrhyTlNjgnjA596xv+E2+J3/AESP/wAuW2/+JoA7nQtc07xLoltq+i3H2mxulLQy7GTcASDwwBHIPUVoVn6Feajf6JbXOtaX/ZN9IpM1l9oWfyTkgDevDcYPHrXM+Ifhp/wkGvXGp/8ACa+MNM8/b/omm6r5MEe1QvyptOM4yeepJoA7aivNv+FN/wDVR/iB/wCDz/7Cj/hTf/VR/iB/4PP/ALCgD0mivNv+FN/9VH+IH/g8/wDsKP8AhTf/AFUf4gf+Dz/7CgD0mivNv+FN/wDVR/iB/wCDz/7Cj/hTf/VR/iB/4PP/ALCgD0mivNv+FN/9VH+IH/g8/wDsKP8AhTf/AFUf4gf+Dz/7CgD0mivNv+FN/wDVR/iB/wCDz/7Cj/hTf/VR/iB/4PP/ALCgD0mivNv+FN/9VH+IH/g8/wDsKP8AhTf/AFUf4gf+Dz/7CgD0mivNv+FN/wDVR/iB/wCDz/7Cj/hTf/VR/iB/4PP/ALCgD0mivNv+FN/9VH+IH/g8/wDsKP8AhTf/AFUf4gf+Dz/7CgD0mivNv+FN/wDVR/iB/wCDz/7Cj/hTf/VR/iB/4PP/ALCgD0mivNv+FN/9VH+IH/g8/wDsKP8AhTf/AFUf4gf+Dz/7CgDqpPCVtdeMIPEOp3U97PZK62FvIFEVnvGHZQACWIGMsTgdMVv15t/wpv8A6qP8QP8Awef/AGFH/Cm/+qj/ABA/8Hn/ANhQB6TRXmr/AAeWNCz/ABJ8fKoGSTruAP8AxykT4PpKgeL4k+PnU9GXXcg/+OUAel0V5t/wpv8A6qP8QP8Awef/AGFRt8I4UmETfEzx4sh6IdfGT+GygD02ivMm+EcKTCJviZ48WQ9EOvjJ/DZUn/Cm/wDqo/xA/wDB5/8AYUAek0V5t/wpv/qo/wAQP/B5/wDYUf8ACm/+qj/ED/wef/YUAek0V5t/wpv/AKqP8QP/AAef/YUf8Kb/AOqj/ED/AMHn/wBhQB0mpeC47rxSfEWl6re6Tqb2wtZnthG6TxgkqGSRWGQTwRg9ulWNC8J2ui6ld6pLdXWpareKqT394ylyi/dRQqqqICScKBzycnmuT/4U3/1Uf4gf+Dz/AOwo/wCFN/8AVR/iB/4PP/sKAPSaK82/4U3/ANVH+IH/AIPP/sKP+FN/9VH+IH/g8/8AsKAPSaK82/4U3/1Uf4gf+Dz/AOwo/wCFN/8AVR/iB/4PP/sKAPSaK82/4U3/ANVH+IH/AIPP/sKP+FN/9VH+IH/g8/8AsKAPSaK82/4U3/1Uf4gf+Dz/AOwqN/hHDHIscnxM8eI7fdVtfAJ+g2UAem0V5t/wpv8A6qP8QP8Awef/AGFH/Cm/+qj/ABA/8Hn/ANhQB6TRXm3/AApv/qo/xA/8Hn/2FH/Cm/8Aqo/xA/8AB5/9hQB6TRXm3/Cm/wDqo/xA/wDB5/8AYUf8Kb/6qP8AED/wef8A2FAHpNFFFABRRRQAUUUUAFFFFAEdzbQXlrJbXcMc8EqlJIpUDK6nggg8Ee1YUXw+8GQSrLB4R0KORTlXTTIQQfYha6GigBFVUUKgCqowABgAVS07Q9J0iSeTSdLsrF7ht8zW1ukZlbrlioGT7mr1FAGWnhfQI9XOqx6Hpq6iTuN4LSMTE+u/G79auX+n2Wq2UlnqdnBe2sgw8FxEsiP9VIINWKKAMufwvoF1a2ltc6Hps0Fkc2sUlpGywH1QEYX8MVYv9H0zVUhTU9OtLxbdxJCtxAsgjcDAZcg4OD1FXKKAADAwOBVCLQdHg1K41CDSrGO9uRie5S2QSSj0ZgMt+NX6KAM2z8OaHp2nz2Gn6Np9rZ3AImtoLVEjlBGDuUDByPWpLbQ9Js9KfTLPS7K30+RSr2kVuixMCMEFAMEEcHir1FAFK20XSrLS20yz0yzt7BgVNpFbqsRB6jYBjn6VWPhTw62kLpTaBpZ05X8xbM2cfkh/72zG3PvitaigDPufD+jXsKQ3mkWNxFHEYUSW2RlWM4ygBHCnaOOnA9Kl03StO0a0FrpFha2FuDkQ2sKxID/uqAKt0UAUU0PSY9YfVo9Lsl1KQbXvVt0EzDGMF8bjxx1oj0TSotYk1aLTLNNSlULJeLboJnGMYL43EYGOtXqKAKMWh6Tb6tLqkGl2UWozDEt4lugmkGMfM4GTx6mm/wBgaP8A2z/a/wDZNj/ae3b9t+zJ52PTfjdj8a0KKAOB1S08aeLNW1HQNQsbfSPDLT7X1CK5DXF7bbRmJUBOwsdwLkg7TgDPNdza2sFlaQ2tnCkFvCgjiijXCooGAAOwAqWigArhPDmlX/gLXrzSobKa88N6leNc2U1uu9tPkkI3xSL18stlg4yFyd2BzXd0UAZOm+E/DujXzXukaBpdhdupVp7WzjikYE5ILKAcEgVrUUUAcHe6ZfeO/GGl3F9Yz2Ph3Q7j7XEl0myS/uhwjeWeVjTLEFsEntjmu8oooAKKKKACiiigArzLw3eXnxT1rVNUnvbu28KWNy1np9rZztAb50+/NI6EMVzwqg49Rkc914ma4Xwlq7WW77SLGYw7Pvb/ACztx75xXIfBqSw0v4FaDcmaOG0is3nnlZgFQ72aQk+xzn6UAbPhPwrc+FtU12STV7u70y7mjksba7u5J/saBPnAMhOMuWPXoBUZ+J3hUeXJ9umNlJOLddSFpL9jMhONvn7dh543ZxnjNc98X/EZu/gPdapoUzpBq0VukdwylNsMzqCxBwQCrY/4FVf4xafb23wnsPAmixgXOrT2um2ECjkLG6OWwP4VVOT2zzQB22q+N9C0XV7XTdSupYZrq5S0ST7NIYhM4ykZkC7AxHOM59aLLxxoOoeIo9EtrqT7bNAbi3D28iJcRg4LRuyhXHupPHI4rjPibYweIfHHgHwdcKbi1e8l1G6RjnMdvH8ob1DFiv51Oi/2z+0o52gW/hzQlQcdJp3/AJbOKAO01nxTpWg3Nva300j3l0CYLO2geeaQDqwRATtHdiMD1puh+LdG8QaHPq9hcsllbySRzyXUTQeU0f3wwcDGO56dfQ1xfw1Y6p8QPiBr+o5+1w6odLi8z/ljbwj5QvoGzuPqeap/GGYah4f8L6P4f+ytp/iTW4VneNtsNyjEyYLqDw7YJIBzjvQB2Nl8RvDd/qdhZQXVwG1Lf9hmls5o4braMt5cjKFbjnIOD2zTofiJ4am1WbTheyx3MVst2qS2sqedEz7A8eVHmAuQo25ySMZrMHhq51Txpot54q1LTon0lJJ9N0fT1KjdgI0jMx3OFDAABVAyM5zWRoVnB4j/AGiPEutTxiVfDtlbabaueQJHDSOR7jcy/wDAjQB22h+LdJ8RRag2lyTvJpsphureS3eKWJwM4KMAeR045rk/DPxOn1/xtr1mdK1FNLsJYbW2K6dKZDMQTIZCAQgHy4Bxxyah+DjC9tvFniqbCjWNbuJIjj/lhF8ifXGGpnwNuoH+H51y7ljhuPE2sXd4FkcBnkaRl2j1OIicexoA6pfiH4ZOqT2Et+1vJDaNel7i3kijaBW2tIrsoVgD3BOe2am8OeOdA8U6LeavpF4TYWUrwz3E8bQqjIoZs7wOACOa4m2sYPFn7SWr3VzmW28M6Xb2wjz8jTSMZgWHRsdcHoyqeqipvjQix6FoOh20YtrTxH4jtbPUHhXZvR2JfJGMltoznqAaAN6b4reE7e2huri7u4rS5cR2t0+nXAhumPRY32YYntjrgkZAqp8T/H9z4OtLC00myuJ9T1O7htreT7K8kK73+bkfebarYUc8g4xWT8R5bTWPH/gLwZbxA+Xqg1OZUXCRJbxMyoewzk8emPUVY8YP/a3xz8CaQT+4sorrVJR/eITZHj6Nk0AdPqvjTT9L8J3Ou30Wo2VpCxR3l06XfHx98x43bRnr096m8OXK2HgayvdW1xr+IW32mTU72NbcujfOGZeAmFIHtjmuS+NOopf/AA1i0vTLlZD4h1S30mOaFg4BaX5gCOP+WbKfxqL4yRC40zwj4aT91puq69a2d0AflaEZPlfiVH/fNAHUWfxF8OXt9Y20dxcxDUW2WM9xZTQw3TYziOR1CsT25+btmpLjx/4ctNei0i7vmt7iYTGKSaCRIZPJGZQspXYSo64PH14rlPimg1rxV4E8K6f/AMfQ1mLVZRH1gt7cNuY/3Qd2AfUYpuu2cHin9orQ7C5jE1t4c0mTUWB5UTSyBEBHqNquPoKAO10fxho+u6xeaVYzTrfWSJJLb3NrJA+xvuuA6jKn1FbleZ+Bx/bHxm8ea6wAjtXt9Itzjn92m6X/AMewa9MoA8aj8R2/jf4z3lpqukalc6JodrHDFYzae7obuU582VMEDCZC7+nJGOtemKPD/gLwttBttH0ayBIBbake5icDPcsx47k4Fcd8F2/tSw8S+KGO7+3NcuJYX9YEIjjH4Yao/H6HVvjH8PtDu/8AkH+Zdag8bfdmlhjzGPcqefxoA63TPHGiarrMelRPd219NEZoIb6ymtmnjHVk8xV3Y7gcjuK5HXbGz1b9pLwykdvGLnSNJudQuJVQbnDkQxqx6nB3EA9M0viIHxB+0L4TtLElh4bs7q9vnTpH56CONCexO3OOu2pfAp/tf4u+Pdcc5S3mt9JtwR90RJukH4sQaAIddsbPVv2kvDKR28YudI0m51C4lVBucORDGrHqcHcQD0zXaav4v0jRtRj064mmuNRkj81bKyt5LibZnG8pGCVX/aOBnjrXI+BT/a/xd8e645ylvNb6Tbgj7oiTdIPxYg1W+Essc83jrxTq0ipdTa7cQTSSkDyILcAIhPYKCf0oA6m4+I/hq38HyeJ/tksulQy+TNJFbSM8Dg4KyJt3IQcA5Axkeoq/q3i7RtE0ex1TUrryrS/liht3CE72l+4MD1/SvJ/DulTap8CPiHq8kUiR+I7jUtVs4nGP3ZUlDg9MlM59MGsHxReS+LfgjY6xbEtZeFdMsJEZCVE1/mHzMH0jj3L/AL0jDqtAHumpeL9J0jxTpnh++e4S/wBVDGzC27skm3JYbwNoIHJGeAQe9ZEXia01P4h3drb63eWq6Dau2oabLYmON8n5ZTIw5GORt4I5yaTQo4/F3jJvF3Emm6fFJZaO3USbiPPuB7MVVFPcKT0YVk/C9v7X8Y+PvEjgj7VrI06It3jtUCAj2O4mgDpLX4heHby8vbSK5uFu7MxiS2lspklfzFLJsjK7nyFJ+UHgE1oeHPE2l+K9Ma/0SdpoY5nglV42jeKRDhkZWAKkehHevP8AwElpqHxE+IPji5XeLa9OmQSYzsjt4wJNv1OOfar/AMCraRfhnHqtygjuddvbnU5UHrJIQP8Ax1V/OgDqtU8ZaNpOq/2ZLLcXN+I/Ne1sbWS5kiT+84jU7R6ZxntmpfDXirRvF+nS3/h27+2WsUxhaXynQbwqsQNwBOAw/HI6g15t8LtfttM+Fuv+PtZ3NealfXN3c5H7xijFI4APbGFXturo/glpjaZ8INFMoxNeo97IQMZMrlwf++StAGp8TruGx+FviK6nkmjENjI8bwzNE4kA/d4ZSCPn2/8A1xxXAa3oN5pX7LjTPqeppq8dnFqcl2b+UyiYhSw3bvu7SV2/d74zzW58c3+3eF9H8MITv8Raza2TKDg+Xv3sfoNq/nXRfE62Evwk8URIqqqaTcMBjgBYy39KAMLVp7fTPgLawW8l/PdajYQwWA+1yfaZ7uYAx/vN27O9tx5wAD2GK6bwN4Xfwl4VttOur+61G92h7q6uZ3laSUgbsbidq8YAH8ySeM+F5fxra6D4guY8aZoemw2unxkcSXZhUTzf8A5iU+vmV6rQBna54g0vw3p4vdbvEtYC4jQkFmkc9FVVBZmPYAE15d4nv9H8a/GLwJYW1lMl9YTzahcm8sXgmiijTdH99QSpfpjjKnuK1NSJ1r9pbStNvt32TRdBk1K2jb7rTvL5RfHQ4U8ehBpnhi7t/E37QXiXWLcboNE0q30qKUj5ZC8jSsVPfkEZ/oaAO61rxTpOgXFtbahcOby7JFvaW8LzTzY6lY0BYgdzjA7ml0DxNpXia3uJNJnZ2tZTBcwyxNFLBIOqujgMp+o5rh/Aaf2n8YPH+tX+Tc2c0Gm2yvjMMCpuOPQMcNUHw3ubW41zx94yuZ1h0bVtSjtraaVwI5UhBi8xT6MzYB74oA6W5+Kfha1tmvHuLyTT1n8g6hDp08ltv3bcCRUKkbuMjIzxmt3W/EWl+HLaKbWLsQCeQRQRqjPJM56IiKCzt7AE15xpVnqXwy8T6L4MleLWvCWtTSxWCToDcWDqDJsbtInU5xke2OYm/tzWv2i9bksobGU+HtNggsxqDuEi89Q7yoqg5Y8qTkccZoA9F8P+LNJ8SzX0GmSzC50+QRXdtcW7wywswyu5XAOCOQehrark/BXhuHStQ13V59Vi1bWdVul/tG4gUJHG0S7UhVATtCKccknnmusoAKKKKACiiigAooooAKKKKACiiigAooooAKKKKACiiigAooooAKKKKACiiigAooooAKKKKACiiigAooooAKKKKACiiigAooooAKKKKACiiigArlp/hr4QuPNWXRIfImk82S2WR1gd+u4xBthOeenWupooApz6Rp11ox0m5soJdOaIQm1eMGMoBgLt6YAAqhpPg/QdEvReadp6pdLH5STySPK8af3FZySq8DgYFbdFAGfJoWmS+IotdktFbU4bc20dwScrGTkqBnHXvjNVrjwhoF3rzazc6ZDLfuqK8rZw+w5QsudrFT0JGR2rZooAwbzwT4dv9Un1C60uN7i5wLkhmVLjAwPMQHbJxx8wNX9U0LTNa00afqllDcWqsrJGy48tl+6ykcqR2IwRV+igDM0nw7pWiSSyabZrHNMAss7s0ksgHQNIxLEDJwCeKfpmhaZo1xfz6baLBLqFwbm6cEkyyHgscn9BxWhRQBjaP4Q0DQLl7jSNMhtpWZ23Lk7N5y4XJOwEgEhcA4pujeDvD/h+4M2jaXDavliu0kiPccsEBJCAnqFxmtuigDP0/QtN0q+v73T7RYbnUpRNdyAkmVwMAnJ9PSl1rQ9N8Q6abDWrRLu2LK+x8jDKchgRyCD3HNX6KAOfuvAvhq8WzFzpUTmyaR4HDsHBkADksDltwAB3E5xzU2o+D9A1WWxkvdMhL6ehjtWiJiMSEYKDYR8uABt6Y7VtUUAZWqeGNF1nSrbTdQ06GSztJEltokBjEDp9xkK4KkdBjHFJceFdCu9CGjXGl20mnq29YCnAfO7eD1DZJO7rkk5rWooAytI8M6PoU00+l2SxXFwAJrh3aSWQDoGkcliB2BOBUtvoWmWmvXms29oqajfIkdxcZJLqgwowTgY9q0KKAMa38IaBaa3Nq9vpkKX083nvLycy7dvmBScBsEgsACag8aahf2Xhq6h0XT7q+1O7heG0SCPKrIVwrO3RFBOSSe3HNdBRQBz/AID8Mjwb4D0jQAyu9lbhZWT7rSElnI9izMavaz4e0rxBHCmsWSXBt38yB8lXhbpuR1IZT9CK0qKAM7R9A0vQIJItIso7YTP5krLkvK/Tc7HLMfckmq9t4R0G01ufV7fTIUvp5fPkl5P73bt8wKTgNjgsACc9a2aKAMa28I6Daa3Pq9vpkKX08vnyS8n97t2+YFJwGxwWABOetV73wF4Y1G+uLu80iGSS6YPcqGZY7hh3kjB2uf8AeBroaKAIZrS3nsZLOWFGtpIzE0WMKUIwVx6Y4rMTwloUfhM+GY9NhTRjEYjZrkKVJyRkHPJ5znNbNFAEVrawWVpDa2cKQW8KCOKKNcKigYAA7ACsrT/CGgaVqs2pafpkMN3NK8zSDJxI/wB9lBOFLdyAM962qKAM3SfD2laHp81jpdlHBbXErzSx8sJHf7xO7Oc1y+v+GZ/Cfgm7/wCFY6XHBqYEaJsw8iw+YC6x+aSMgFiFPy5PSu6ooA8m1zQLbXNNvdN8F+F73Tb/AFlyt3f3ts8ENmsgxNKqscGRkLL+7HJbk4r1KwsodN022sbRdsFrEsMS+iqAAPyFT0UAc/r3gXw74n1O11DXNO+1XVmALeXz5EMWDnKhWABz368D0FbV7Z2+o2FxZXsSzW1zE0M0bdHRhhgfqCamooAq6Zptno2l2+naXbpbWltGI4YU6Io6CrVFFAGRq3hXRdcv7e91SwSe6tlZI5dzKwRuqEqRlT3U5HtUSeDPDseuNq6aTbret5W5wDtJjXbGdmduVHCnGR2rcooAwdT8E+HdY1Ca+v8ATEe5uEEc8iO8fnqOAsm0gOAOMNnjirl74d0fUPD50O8022k0rYsf2PywIgqkFQFHAAIBHpgVpUUAYmmeDtB0jUEvrKwH2uNDHHPPK8zxKeqozsSoPoMU7VPCWiazqC39/YhrxY/K+0RSvE7JnOxmQgsuexyK2aKAK9hYWml2MdnptrDaW0QwkMKBFUewFWKKKACiiigAooooAKKKKACiiigAooooAKKKKACiiigAooooAKKKKACiiigAooooAKKKKACiiigAooooAKKKKACiiigAooooAKKKKACiiigAooooAKKKKACiiigAooooAKKKKACiiigAooooAKKKKACiiigAooooAKKKKACiiigAooooAKKKKACiiigAooooAKKKKACiiigAooooAKKKKACiiigAooooAKKKKACiiigAooooAKKKKACiiigAooooAKKKKACiiigAooooAKKKKACiiigAooooAKKKKACiiigAooooAKKKKACiiigAooooAKKKKACiiigAooooAKKKKACiiigAooooAKKKKACiiigAooooAKKKKACiiigAooooAKKKKACiiigAooooAKKKKACiiigAooooAKKKKACiiigAooooAKKKKACiiigAooooAKKKKACiiigAooooAKKKKACiiigAooooAKKKKAP/2Q==;" vertex="1" parent="1">
          <mxGeometry x="320" y="330" width="330" height="55.32" as="geometry" />
        </mxCell>
        <mxCell id="CehPScionSyovV5Jhn6Q-45" style="edgeStyle=orthogonalEdgeStyle;rounded=0;orthogonalLoop=1;jettySize=auto;html=1;" edge="1" parent="1" source="CehPScionSyovV5Jhn6Q-44" target="CehPScionSyovV5Jhn6Q-16">
          <mxGeometry relative="1" as="geometry" />
        </mxCell>
        <mxCell id="CehPScionSyovV5Jhn6Q-44" value="absorption of drug through blood vessels in mouth/nose&amp;nbsp;" style="rounded=0;whiteSpace=wrap;html=1;" vertex="1" parent="1">
          <mxGeometry x="-410" y="290" width="120" height="60" as="geometry" />
        </mxCell>
        <mxCell id="CehPScionSyovV5Jhn6Q-47" value="" style="edgeStyle=orthogonalEdgeStyle;rounded=0;orthogonalLoop=1;jettySize=auto;html=1;" edge="1" parent="1" source="CehPScionSyovV5Jhn6Q-46" target="CehPScionSyovV5Jhn6Q-44">
          <mxGeometry relative="1" as="geometry" />
        </mxCell>
        <mxCell id="CehPScionSyovV5Jhn6Q-46" value="drug must be lipophilic" style="rounded=0;whiteSpace=wrap;html=1;" vertex="1" parent="1">
          <mxGeometry x="-605" y="290" width="120" height="60" as="geometry" />
        </mxCell>
        <mxCell id="CehPScionSyovV5Jhn6Q-49" style="edgeStyle=orthogonalEdgeStyle;rounded=0;orthogonalLoop=1;jettySize=auto;html=1;entryX=1;entryY=0.5;entryDx=0;entryDy=0;" edge="1" parent="1" source="CehPScionSyovV5Jhn6Q-48" target="CehPScionSyovV5Jhn6Q-16">
          <mxGeometry relative="1" as="geometry" />
        </mxCell>
        <mxCell id="CehPScionSyovV5Jhn6Q-48" value="drug can be administered rectally if patient cannot swallow" style="rounded=0;whiteSpace=wrap;html=1;" vertex="1" parent="1">
          <mxGeometry x="-120" y="-10" width="120" height="60" as="geometry" />
        </mxCell>
        <mxCell id="CehPScionSyovV5Jhn6Q-51" value="" style="edgeStyle=orthogonalEdgeStyle;rounded=0;orthogonalLoop=1;jettySize=auto;html=1;" edge="1" parent="1" source="CehPScionSyovV5Jhn6Q-50" target="CehPScionSyovV5Jhn6Q-48">
          <mxGeometry relative="1" as="geometry" />
        </mxCell>
        <mxCell id="CehPScionSyovV5Jhn6Q-50" value="less first pass" style="rounded=0;whiteSpace=wrap;html=1;" vertex="1" parent="1">
          <mxGeometry x="-120" y="-140" width="120" height="60" as="geometry" />
        </mxCell>
        <mxCell id="CehPScionSyovV5Jhn6Q-56" value="" style="edgeStyle=orthogonalEdgeStyle;rounded=0;orthogonalLoop=1;jettySize=auto;html=1;" edge="1" parent="1" source="CehPScionSyovV5Jhn6Q-52" target="CehPScionSyovV5Jhn6Q-55">
          <mxGeometry relative="1" as="geometry" />
        </mxCell>
        <mxCell id="CehPScionSyovV5Jhn6Q-59" value="" style="edgeStyle=orthogonalEdgeStyle;rounded=0;orthogonalLoop=1;jettySize=auto;html=1;" edge="1" parent="1" source="CehPScionSyovV5Jhn6Q-52" target="CehPScionSyovV5Jhn6Q-57">
          <mxGeometry relative="1" as="geometry" />
        </mxCell>
        <mxCell id="CehPScionSyovV5Jhn6Q-52" value="using needles" style="rounded=0;whiteSpace=wrap;html=1;" vertex="1" parent="1">
          <mxGeometry x="-270" y="400" width="120" height="60" as="geometry" />
        </mxCell>
        <mxCell id="CehPScionSyovV5Jhn6Q-55" value="Intravenouslly" style="rounded=0;whiteSpace=wrap;html=1;" vertex="1" parent="1">
          <mxGeometry x="-425" y="400" width="120" height="60" as="geometry" />
        </mxCell>
        <mxCell id="CehPScionSyovV5Jhn6Q-57" value="subcutaniously" style="rounded=0;whiteSpace=wrap;html=1;" vertex="1" parent="1">
          <mxGeometry x="-300" y="500" width="120" height="60" as="geometry" />
        </mxCell>
        <mxCell id="CehPScionSyovV5Jhn6Q-61" style="edgeStyle=orthogonalEdgeStyle;rounded=0;orthogonalLoop=1;jettySize=auto;html=1;" edge="1" parent="1" source="CehPScionSyovV5Jhn6Q-60" target="CehPScionSyovV5Jhn6Q-55">
          <mxGeometry relative="1" as="geometry" />
        </mxCell>
        <mxCell id="CehPScionSyovV5Jhn6Q-60" value="Bioavailabilty of 1" style="rounded=0;whiteSpace=wrap;html=1;" vertex="1" parent="1">
          <mxGeometry x="-490" y="500" width="120" height="60" as="geometry" />
        </mxCell>
        <mxCell id="CehPScionSyovV5Jhn6Q-63" value="" style="edgeStyle=orthogonalEdgeStyle;rounded=0;orthogonalLoop=1;jettySize=auto;html=1;" edge="1" parent="1" source="CehPScionSyovV5Jhn6Q-62" target="CehPScionSyovV5Jhn6Q-55">
          <mxGeometry relative="1" as="geometry" />
        </mxCell>
        <mxCell id="CehPScionSyovV5Jhn6Q-62" value="highly controlled and imediate action" style="rounded=0;whiteSpace=wrap;html=1;" vertex="1" parent="1">
          <mxGeometry x="-605" y="400" width="120" height="60" as="geometry" />
        </mxCell>
        <mxCell id="CehPScionSyovV5Jhn6Q-65" style="edgeStyle=orthogonalEdgeStyle;rounded=0;orthogonalLoop=1;jettySize=auto;html=1;" edge="1" parent="1" source="CehPScionSyovV5Jhn6Q-64" target="CehPScionSyovV5Jhn6Q-57">
          <mxGeometry relative="1" as="geometry" />
        </mxCell>
        <mxCell id="CehPScionSyovV5Jhn6Q-64" value="easy to train patients" style="rounded=0;whiteSpace=wrap;html=1;" vertex="1" parent="1">
          <mxGeometry x="-350" y="630" width="120" height="60" as="geometry" />
        </mxCell>
        <mxCell id="CehPScionSyovV5Jhn6Q-69" value="" style="edgeStyle=orthogonalEdgeStyle;rounded=0;orthogonalLoop=1;jettySize=auto;html=1;" edge="1" parent="1" source="CehPScionSyovV5Jhn6Q-66" target="CehPScionSyovV5Jhn6Q-68">
          <mxGeometry relative="1" as="geometry" />
        </mxCell>
        <mxCell id="CehPScionSyovV5Jhn6Q-66" value="Intramuscular" style="rounded=0;whiteSpace=wrap;html=1;" vertex="1" parent="1">
          <mxGeometry x="-200" y="600" width="120" height="60" as="geometry" />
        </mxCell>
        <mxCell id="CehPScionSyovV5Jhn6Q-67" style="edgeStyle=orthogonalEdgeStyle;rounded=0;orthogonalLoop=1;jettySize=auto;html=1;entryX=0.615;entryY=0.078;entryDx=0;entryDy=0;entryPerimeter=0;" edge="1" parent="1" source="CehPScionSyovV5Jhn6Q-52" target="CehPScionSyovV5Jhn6Q-66">
          <mxGeometry relative="1" as="geometry">
            <Array as="points">
              <mxPoint x="-150" y="530" />
              <mxPoint x="-126" y="530" />
            </Array>
          </mxGeometry>
        </mxCell>
        <mxCell id="CehPScionSyovV5Jhn6Q-68" value="good for proteins or slow absobtion" style="rounded=0;whiteSpace=wrap;html=1;" vertex="1" parent="1">
          <mxGeometry x="-200" y="720" width="120" height="60" as="geometry" />
        </mxCell>
        <mxCell id="CehPScionSyovV5Jhn6Q-71" style="edgeStyle=orthogonalEdgeStyle;rounded=0;orthogonalLoop=1;jettySize=auto;html=1;" edge="1" parent="1" source="CehPScionSyovV5Jhn6Q-70" target="CehPScionSyovV5Jhn6Q-66">
          <mxGeometry relative="1" as="geometry">
            <Array as="points">
              <mxPoint x="-210" y="770" />
              <mxPoint x="-210" y="630" />
            </Array>
          </mxGeometry>
        </mxCell>
        <mxCell id="CehPScionSyovV5Jhn6Q-74" style="edgeStyle=orthogonalEdgeStyle;rounded=0;orthogonalLoop=1;jettySize=auto;html=1;entryX=0;entryY=0.5;entryDx=0;entryDy=0;" edge="1" parent="1" source="CehPScionSyovV5Jhn6Q-70" target="CehPScionSyovV5Jhn6Q-57">
          <mxGeometry relative="1" as="geometry">
            <Array as="points">
              <mxPoint x="-400" y="650" />
              <mxPoint x="-360" y="650" />
              <mxPoint x="-360" y="530" />
            </Array>
          </mxGeometry>
        </mxCell>
        <mxCell id="CehPScionSyovV5Jhn6Q-70" value="get into blood via capillary action or lymph" style="rounded=0;whiteSpace=wrap;html=1;" vertex="1" parent="1">
          <mxGeometry x="-450" y="740" width="120" height="60" as="geometry" />
        </mxCell>
        <mxCell id="CehPScionSyovV5Jhn6Q-76" value="" style="edgeStyle=orthogonalEdgeStyle;rounded=0;orthogonalLoop=1;jettySize=auto;html=1;" edge="1" parent="1" source="CehPScionSyovV5Jhn6Q-75" target="CehPScionSyovV5Jhn6Q-70">
          <mxGeometry relative="1" as="geometry" />
        </mxCell>
        <mxCell id="CehPScionSyovV5Jhn6Q-75" value="lipophilic rate of absobtion depends on drug solubility and vcinity and area of cap bed" style="rounded=0;whiteSpace=wrap;html=1;" vertex="1" parent="1">
          <mxGeometry x="-470" y="840" width="160" height="110" as="geometry" />
        </mxCell>
        <mxCell id="CehPScionSyovV5Jhn6Q-78" value="" style="edgeStyle=orthogonalEdgeStyle;rounded=0;orthogonalLoop=1;jettySize=auto;html=1;" edge="1" parent="1" source="CehPScionSyovV5Jhn6Q-77" target="CehPScionSyovV5Jhn6Q-70">
          <mxGeometry relative="1" as="geometry" />
        </mxCell>
        <mxCell id="CehPScionSyovV5Jhn6Q-77" value="hydrophilic depends on ability to pass between endothelial cells" style="rounded=0;whiteSpace=wrap;html=1;" vertex="1" parent="1">
          <mxGeometry x="-650" y="720" width="120" height="60" as="geometry" />
        </mxCell>
        <mxCell id="CehPScionSyovV5Jhn6Q-81" style="edgeStyle=orthogonalEdgeStyle;rounded=0;orthogonalLoop=1;jettySize=auto;html=1;" edge="1" parent="1" source="CehPScionSyovV5Jhn6Q-80" target="CehPScionSyovV5Jhn6Q-13">
          <mxGeometry relative="1" as="geometry">
            <Array as="points">
              <mxPoint x="110" y="90" />
              <mxPoint x="-120" y="90" />
            </Array>
          </mxGeometry>
        </mxCell>
        <mxCell id="CehPScionSyovV5Jhn6Q-80" value="transdermal" style="rounded=0;whiteSpace=wrap;html=1;" vertex="1" parent="1">
          <mxGeometry x="50" y="-30" width="120" height="60" as="geometry" />
        </mxCell>
        <mxCell id="CehPScionSyovV5Jhn6Q-83" value="" style="edgeStyle=orthogonalEdgeStyle;rounded=0;orthogonalLoop=1;jettySize=auto;html=1;" edge="1" parent="1" source="CehPScionSyovV5Jhn6Q-82" target="CehPScionSyovV5Jhn6Q-80">
          <mxGeometry relative="1" as="geometry" />
        </mxCell>
        <mxCell id="CehPScionSyovV5Jhn6Q-82" value="only good for lipophilic drugs" style="rounded=0;whiteSpace=wrap;html=1;" vertex="1" parent="1">
          <mxGeometry x="50" y="-170" width="120" height="60" as="geometry" />
        </mxCell>
        <mxCell id="CehPScionSyovV5Jhn6Q-85" style="edgeStyle=orthogonalEdgeStyle;rounded=0;orthogonalLoop=1;jettySize=auto;html=1;entryX=1;entryY=0.25;entryDx=0;entryDy=0;" edge="1" parent="1" source="CehPScionSyovV5Jhn6Q-84" target="CehPScionSyovV5Jhn6Q-13">
          <mxGeometry relative="1" as="geometry">
            <Array as="points">
              <mxPoint x="280" y="90" />
              <mxPoint x="10" y="90" />
              <mxPoint x="10" y="235" />
            </Array>
          </mxGeometry>
        </mxCell>
        <mxCell id="CehPScionSyovV5Jhn6Q-84" value="Inhilation" style="rounded=0;whiteSpace=wrap;html=1;" vertex="1" parent="1">
          <mxGeometry x="220" y="-10" width="120" height="60" as="geometry" />
        </mxCell>
        <mxCell id="CehPScionSyovV5Jhn6Q-87" value="" style="edgeStyle=orthogonalEdgeStyle;rounded=0;orthogonalLoop=1;jettySize=auto;html=1;" edge="1" parent="1" source="CehPScionSyovV5Jhn6Q-86" target="CehPScionSyovV5Jhn6Q-84">
          <mxGeometry relative="1" as="geometry" />
        </mxCell>
        <mxCell id="CehPScionSyovV5Jhn6Q-86" value="volatile agents" style="rounded=0;whiteSpace=wrap;html=1;" vertex="1" parent="1">
          <mxGeometry x="220" y="-140" width="120" height="60" as="geometry" />
        </mxCell>
        <mxCell id="CehPScionSyovV5Jhn6Q-89" value="" style="edgeStyle=orthogonalEdgeStyle;rounded=0;orthogonalLoop=1;jettySize=auto;html=1;" edge="1" parent="1" source="CehPScionSyovV5Jhn6Q-88" target="CehPScionSyovV5Jhn6Q-84">
          <mxGeometry relative="1" as="geometry" />
        </mxCell>
        <mxCell id="CehPScionSyovV5Jhn6Q-88" value="drugs used to treat airways" style="rounded=0;whiteSpace=wrap;html=1;" vertex="1" parent="1">
          <mxGeometry x="400" y="-10" width="120" height="60" as="geometry" />
        </mxCell>
      </root>
    </mxGraphModel>
  </diagram>
</mxfile>
